<svg xmlns="http://www.w3.org/2000/svg" version="1.1" xmlns:xlink="http://www.w3.org/1999/xlink" xmlns:svgjs="http://svgjs.dev/svgjs" width="1000" height="1003" viewBox="0 0 1000 1003"><g transform="matrix(1,0,0,1,-0.47636136405708385,0.30672782874626137)"><svg viewBox="0 0 326 327" data-background-color="#282634" preserveAspectRatio="xMidYMid meet" height="1003" width="1000" xmlns="http://www.w3.org/2000/svg" xmlns:xlink="http://www.w3.org/1999/xlink"><defs></defs><g id="tight-bounds" transform="matrix(1,0,0,1,0.15583706554201626,-0.10000000000002274)"><svg viewBox="0 0 325.6881674178318 327.2" height="327.2" width="325.6881674178318"><g><svg viewBox="0 0 395.52 397.35598939943077" height="327.2" width="325.6881674178318"><g transform="matrix(1,0,0,1,0,173.94609123514343)"><svg viewBox="0 0 395.52 223.40989816428737" height="223.40989816428737" width="395.52"><g><svg viewBox="0 0 395.52 223.40989816428737" height="223.40989816428737" width="395.52"><g><svg viewBox="0 0 395.52 130.64219332435994" height="130.64219332435994" width="395.52"><g transform="matrix(1,0,0,1,0,0)"><svg width="395.52" viewBox="-1.4797599999999989 -20.76616 143.88144999999997 47.524770000000004" height="130.64219332435994" data-palette-color="#021e04"><path d="M12.26 17.179l-13.74-4.442 1.022-3.16c0.746 0.206 1.392 0.31 1.938 0.312 0.546 0.001 1.049-0.242 1.508-0.732 0.457-0.483 0.893-1.365 1.307-2.646v0l5.925-18.326c0.279-0.863 0.569-1.683 0.87-2.462 0.309-0.783 0.547-1.379 0.714-1.787v0c-0.524-0.134-1.17-0.315-1.937-0.542-0.774-0.229-1.343-0.385-1.709-0.468v0l1.194-3.692 13.739 4.442-1.021 3.159c-0.714-0.196-1.351-0.297-1.91-0.302-0.567-0.001-1.074 0.234-1.521 0.706-0.453 0.47-0.891 1.358-1.313 2.665v0l-2.412 7.46 13.159 4.255 2.243-6.937c0.279-0.863 0.562-1.685 0.85-2.468 0.29-0.789 0.535-1.383 0.734-1.781v0c-0.518-0.132-1.163-0.313-1.937-0.542-0.774-0.229-1.34-0.384-1.7-0.465v0l1.194-3.692 13.73 4.439-1.021 3.159c-0.708-0.194-1.345-0.295-1.91-0.302-0.561 0.001-1.068 0.236-1.521 0.706-0.453 0.47-0.891 1.358-1.313 2.665v0l-5.925 18.326c-0.279 0.863-0.563 1.689-0.854 2.478-0.288 0.783-0.531 1.373-0.73 1.771v0c0.534 0.103 1.195 0.271 1.981 0.504 0.784 0.24 1.335 0.411 1.652 0.513v0l-1.19 3.682-13.73-4.438 1.021-3.16c0.746 0.206 1.392 0.31 1.938 0.312 0.546 0.001 1.046-0.243 1.499-0.735 0.457-0.483 0.893-1.365 1.307-2.646v0l2.504-7.745-13.205-4.112-2.289 7.079c-0.279 0.863-0.563 1.689-0.854 2.478-0.288 0.783-0.531 1.373-0.73 1.771v0c0.528 0.101 1.185 0.268 1.972 0.501 0.791 0.242 1.345 0.414 1.662 0.516v0zM56.222 26.682v0c-3.169-0.259-5.824-1.011-7.963-2.256-2.132-1.251-3.812-2.83-5.04-4.737-1.223-1.899-2.061-3.961-2.515-6.185-0.461-2.218-0.602-4.414-0.424-6.587v0c0.172-2.106 0.705-4.21 1.599-6.31 0.894-2.094 2.142-3.985 3.745-5.674 1.602-1.682 3.552-2.984 5.848-3.906 2.296-0.923 4.929-1.262 7.9-1.02v0c3.043 0.249 5.623 1.015 7.738 2.298 2.116 1.283 3.8 2.893 5.053 4.828 1.26 1.936 2.144 4.001 2.654 6.197 0.509 2.195 0.678 4.346 0.506 6.453v0c-0.169 2.066-0.7 4.14-1.592 6.221-0.899 2.08-2.147 3.972-3.745 5.674-1.604 1.702-3.555 3.024-5.853 3.966-2.297 0.936-4.934 1.282-7.911 1.038zM57.079 23.07v0c1.734 0.142 3.221-0.165 4.46-0.919 1.239-0.755 2.267-1.788 3.083-3.099 0.817-1.318 1.441-2.775 1.872-4.372 0.432-1.597 0.71-3.163 0.836-4.698v0c0.189-2.306 0.161-4.428-0.081-6.368-0.25-1.933-0.733-3.629-1.451-5.085-0.724-1.457-1.699-2.614-2.927-3.47-1.221-0.856-2.703-1.338-4.446-1.447v0c-1.704-0.106-3.176 0.235-4.419 1.023-1.249 0.794-2.279 1.854-3.089 3.179-0.818 1.331-1.443 2.802-1.876 4.412-0.433 1.617-0.713 3.193-0.838 4.727v0c-0.129 1.575-0.089 3.26 0.119 5.057 0.2 1.802 0.622 3.519 1.264 5.15 0.642 1.638 1.575 2.992 2.798 4.062 1.223 1.077 2.788 1.693 4.695 1.848zM106.59 23.654l-26.629 3.105-0.385-3.298c0.764-0.123 1.395-0.297 1.892-0.523 0.497-0.226 0.853-0.657 1.068-1.292 0.215-0.629 0.245-1.613 0.089-2.95v0l-2.23-19.131c-0.105-0.901-0.183-1.767-0.233-2.6-0.044-0.841-0.075-1.481-0.093-1.922v0c-0.533 0.096-1.195 0.2-1.987 0.312-0.799 0.113-1.382 0.208-1.749 0.284v0l-0.45-3.854 14.343-1.672 0.385 3.298c-0.731 0.119-1.352 0.292-1.863 0.519-0.516 0.235-0.88 0.66-1.089 1.275-0.217 0.616-0.246 1.606-0.087 2.97v0l2.23 19.13c0.105 0.901 0.188 1.753 0.248 2.559 0.06 0.798 0.082 1.42 0.066 1.865v0l6.695-0.781c1.956-0.262 3.415-1.133 4.377-2.614 0.955-1.481 1.273-3.585 0.955-6.313v0l3.348-0.39zM121.059 19.194l-10.234 3.324-1.072-3.3c0.894-0.29 1.527-0.78 1.9-1.469 0.381-0.684 0.62-1.502 0.717-2.451 0.098-0.95 0.167-1.957 0.207-3.022v0l1.018-28.624 3.348-1.088 18.653 22.762c0.345 0.414 0.837 1.056 1.478 1.928 0.632 0.867 1.099 1.658 1.401 2.373v0c0.518-0.238 1.022-0.447 1.511-0.627 0.49-0.173 0.897-0.312 1.22-0.418v0l1.196 3.681-12.869 4.179-1.025-3.157c0.894-0.29 1.446-0.673 1.656-1.148 0.217-0.477 0.206-1.027-0.031-1.651-0.24-0.63-0.648-1.293-1.224-1.989v0l-1.814-2.313-10.314 3.56-0.042 2.495c-0.023 0.47-0.054 1.16-0.095 2.07-0.034 0.908-0.093 1.677-0.176 2.307v0c0.493-0.23 1.095-0.471 1.805-0.723 0.712-0.245 1.227-0.42 1.544-0.522v0zM116.944-1.149l-0.129 6.918 7.979-2.592-4.14-5.268c-0.785-1.014-1.528-2.052-2.23-3.114-0.694-1.057-1.265-2.007-1.714-2.85v0l-0.048 0.016c0.048 0.58 0.122 1.454 0.22 2.62 0.092 1.169 0.113 2.592 0.062 4.27z" opacity="1" transform="matrix(1,0,0,1,0,0)" fill="#021e04" class="undefined-text-0" data-fill-palette-color="primary" id="text-0"></path></svg></g></svg></g><g transform="matrix(1,0,0,1,118.31980799999998,170.9964860278421)"><svg viewBox="0 0 158.88038400000002 52.41341213644525" height="52.41341213644525" width="158.88038400000002"><g transform="matrix(1,0,0,1,0,0)"><svg width="158.88038400000002" viewBox="3.35 -36.15 111.39 36.75" height="52.41341213644525" data-palette-color="#020316"><path d="M3.35 0L3.35-36.15 7.75-36.15 7.75-23.35 8.1-23.35Q10.85-26.9 16.4-26.9L16.4-26.9Q24.6-26.9 24.6-17.95L24.6-17.95 24.6 0 20.2 0 20.2-17.65Q20.2-20.8 18.8-22.03 17.4-23.25 14.75-23.25L14.75-23.25Q12.85-23.25 11.25-22.33 9.65-21.4 8.7-19.65 7.75-17.9 7.75-15.55L7.75-15.55 7.75 0 3.35 0ZM31.15-31.4L31.15-36.15 35.5-36.15 35.5-31.4 31.15-31.4ZM31.15 0L31.15-26.3 35.55-26.3 35.55 0 31.15 0ZM42.25 0L42.25-36.15 46.65-36.15 46.65-13.4 57.8-26.3 63.25-26.3 54.2-15.95 63.75 0 58.65 0 51.45-12.8 46.65-8.25 46.65 0 42.25 0ZM78.39 0.6Q72.04 0.6 68.94-2.75 65.84-6.1 65.84-13.15L65.84-13.15Q65.84-20.2 68.94-23.55 72.04-26.9 78.39-26.9L78.39-26.9Q84.09-26.9 86.92-23.88 89.74-20.85 89.74-14.15L89.74-14.15 89.74-11.95 70.39-11.95Q70.64-7.4 72.57-5.23 74.49-3.05 78.39-3.05L78.39-3.05Q81.54-3.05 83.49-4.5 85.44-5.95 85.44-8.95L85.44-8.95 89.74-8.95Q89.74-4.35 86.57-1.88 83.39 0.6 78.39 0.6L78.39 0.6ZM70.49-15.6L85.14-15.6Q85.14-23.25 78.39-23.25L78.39-23.25Q74.64-23.25 72.77-21.45 70.89-19.65 70.49-15.6L70.49-15.6ZM104.04 0.6Q100.39 0.6 97.97-0.48 95.54-1.55 94.39-3.3 93.24-5.05 93.24-7.1L93.24-7.1Q93.24-7.7 93.27-7.93 93.29-8.15 93.29-8.2L93.29-8.2 97.64-8.2 97.64-7.7Q97.64-5.35 99.49-4.17 101.34-3 104.29-3L104.29-3Q106.84-3 108.52-4.03 110.19-5.05 110.19-6.9L110.19-6.9Q110.19-8.35 109.24-9.28 108.29-10.2 106.89-10.73 105.49-11.25 103.09-11.85L103.09-11.85Q100.19-12.6 98.37-13.35 96.54-14.1 95.27-15.58 93.99-17.05 93.99-19.4L93.99-19.4Q93.99-22.85 96.82-24.88 99.64-26.9 104.44-26.9L104.44-26.9Q107.44-26.9 109.64-25.93 111.84-24.95 112.97-23.33 114.09-21.7 114.09-19.7L114.09-19.7 114.04-18.75 109.74-18.75 109.74-19.2Q109.74-20.95 108.37-22.1 106.99-23.25 103.94-23.25L103.94-23.25Q100.94-23.25 99.74-22.18 98.54-21.1 98.54-19.7L98.54-19.7Q98.54-18.55 99.39-17.8 100.24-17.05 101.49-16.6 102.74-16.15 104.99-15.6L104.99-15.6Q108.09-14.8 110.04-14.03 111.99-13.25 113.37-11.68 114.74-10.1 114.74-7.5L114.74-7.5Q114.74-3.45 111.82-1.43 108.89 0.6 104.04 0.6L104.04 0.6Z" opacity="1" transform="matrix(1,0,0,1,0,0)" fill="#020316" class="undefined-text-1" data-fill-palette-color="secondary" id="text-1"></path></svg></g></svg></g></svg></g></svg></g><g transform="matrix(1,0,0,1,75.54432000000001,0)"><svg viewBox="0 0 244.43135999999996 165.875232694447" height="165.875232694447" width="244.43135999999996"><g><svg xmlns="http://www.w3.org/2000/svg" xmlns:xlink="http://www.w3.org/1999/xlink" version="1.1" x="0" y="0" viewBox="9.287 21.05314090283702 80.294 54.488859097163015" enable-background="new 0 0 100 100" xml:space="preserve" height="165.875232694447" width="244.43135999999996" class="icon-icon-0" data-fill-palette-color="accent" id="icon-0"><g fill="#020316" data-fill-palette-color="accent"><path d="M60.114 63.323c0 0 24.172-1.649 27.093-3.774 1.064-2.833-1.916-16.975-2.11-18.231-0.03-0.759-0.03-0.759-0.078-2.748-0.01-0.425 0.017-1.044 0.072-1.778 0.817-0.057 1.533-0.646 1.702-1.49 0.19-0.955-0.386-1.877-1.299-2.15 0.015-0.108 0.031-0.217 0.046-0.326 0.821-0.115 1.496-0.762 1.598-1.624 0.094-0.793-0.324-1.523-0.991-1.873 0.188-0.909 0.393-1.778 0.615-2.549 0.536-1.857 2.817-4.321 1.506-5.267-1.666-1.201-2.744 0.06-3.913 2.511-3.27 6.858-19.171 1.544-27.504-1.136-0.264 1.003-0.544 1.981-0.833 2.948l-1.315-0.156c-0.638-0.076-1.217 0.38-1.293 1.018s0.38 1.216 1.018 1.292l0.881 0.105c-0.346 1.051-0.705 2.079-1.08 3.075l-0.974-0.462c-0.581-0.276-1.275-0.029-1.55 0.552-0.276 0.581-0.028 1.273 0.552 1.549l1.115 0.529c-0.387 0.934-0.792 1.829-1.204 2.701l-0.861-0.408c-0.581-0.276-1.275-0.028-1.55 0.552-0.276 0.581-0.028 1.273 0.552 1.549l0.819 0.389c-0.411 0.78-0.829 1.541-1.259 2.257l-0.794-0.553c-0.528-0.367-1.253-0.237-1.62 0.291-0.367 0.527-0.237 1.251 0.29 1.619l0.859 0.599c-0.706 1.029-1.434 1.969-2.18 2.817l-0.56-0.68c-0.408-0.496-1.142-0.566-1.637-0.158-0.496 0.408-0.567 1.141-0.159 1.637l0.728 0.884c-0.667 0.613-1.346 1.157-2.035 1.614-0.009-0.036-0.455 0.046-1.21 0.187l-0.121-0.542c-0.139-0.627-0.761-1.023-1.387-0.883-0.627 0.139-1.022 0.761-0.883 1.388l0.099 0.443c-3.644 0.604-9.445 1.329-14.041 0.438-9.857-2.284-14.026 5.938-14.161 10.636 2.231 1.519 5.593 4.835 21.269 6.621C45.211 68.203 56.415 64.43 60.114 63.323z" fill="#020316" data-fill-palette-color="accent"></path><path d="M88.537 62.554c-12.208 2.165-5.225 1.594-27.201 3.417C26.13 75.423 9.971 62.554 9.971 62.554L9.287 68.42l5.383 2.804 1.306-1.263 2.191 0.532v1.793l2.854 0.764 0.666-1.561 2.157 0.299v1.858l3.776 0.739 0.971-1.368 2.888 0.532 0.587 1.598 2.691 0.084 1.136-1.75 2.423 0.2 0.598 1.861h3.078l0.308-1.562 3.137-0.353 0.615 1.746 4.159-0.199 0.327-2.325 10.895-2.356 2.374 4.348h3.588l0.622-1.958 2.167-0.364 0.734 2.057 3.314-0.532 0.532-2.092 3.153-0.532 1.029 2.359 2.954-0.532 0.532-2.176 2.057-0.547 1.662 2.026 3.43-1.361L88.537 62.554z" fill="#020316" data-fill-palette-color="accent"></path></g></svg><g></g></g></svg></g><g></g></svg></g></svg><rect width="325.6881674178318" height="327.2" fill="none" stroke="none" visibility="hidden"></rect></g></svg></g></svg>